<svg xmlns="http://www.w3.org/2000/svg" xmlns:xlink="http://www.w3.org/1999/xlink" version="1.1" id="Layer_1" x="0px" y="0px" width="83.496px" height="100px" viewBox="0.5378 -18.005 83.496 135.0" enable-background="new -3.637 -8.005 83.496 100" xml:space="preserve">
<path d="M8.343-4.093C4.064,0.063,1.861,5.687,1.861,11.676c0,5.867,2.203,11.493,6.481,15.772l-3.668,3.789  c-5.503-5.5-8.188-12.715-8.312-19.927C-3.519,4.587-1.193-2.381,4.551-8.005L8.343-4.093z M67.263,91.749  c-0.486,0.246-0.974,0.246-1.588,0.246c-1.712,0-3.423-0.979-4.033-2.812l-1.347-3.423H38.047h-22.74l-1.342,3.423  c-0.61,1.834-2.321,2.812-4.033,2.812c-0.615,0-1.102,0-1.589-0.246c-2.326-0.855-3.423-3.423-2.567-5.744l27.137-69.804  l4.156-2.813h1.588l4.038,2.813l27.137,69.804C70.686,88.326,69.59,90.894,67.263,91.749z M21.302,2.753  c-2.567,2.444-3.915,5.99-3.915,9.169c0,3.177,1.224,6.354,3.545,8.678l-3.423,3.425c-3.3-3.303-5.38-7.947-5.38-12.47  c0-4.281,1.711-8.68,5.626-12.469L21.302,2.753z M33.645,81.36l-11.98-11.859L17.023,81.36H33.645z M23.377,64.977l4.038,3.912  l7.579-7.456l-7.337-7.335L23.377,64.977z M29.736,50.063l8.311,8.191l8.316-8.191H29.736z M45.625,72.068l-7.578-7.579  l-7.578,7.579l7.578,7.578L45.625,72.068z M30.955,45.662h13.696l-6.85-17.727L30.955,45.662z M32.18,7.642  c0-3.057,2.567-5.624,5.621-5.624c3.181,0,5.625,2.567,5.625,5.624c0,3.056-2.444,5.624-5.625,5.624  C34.747,13.265,32.18,10.698,32.18,7.642z M48.074,54.465l-6.969,6.968l7.579,7.456l3.668-3.544L48.074,54.465z M58.584,81.36  l-4.52-11.613L42.448,81.36H58.584z M54.92,20.846c2.567-2.446,3.91-5.99,3.91-9.292c0-2.934-1.225-6.233-3.546-8.68l3.423-3.423  c3.177,3.546,5.38,7.947,5.38,12.592c0,4.278-1.711,8.68-5.503,12.349L54.92,20.846z M67.879,27.691  c4.278-4.156,6.477-9.779,6.354-15.769c0.123-5.87-2.075-11.614-6.354-15.895l3.664-3.543c5.503,5.378,8.192,12.592,8.315,19.804  c-0.123,6.723-2.444,13.691-8.192,19.192L67.879,27.691z"/>
<text x="-3.637" y="109.495" font-size="5.0" font-weight="bold" font-family="Helvetica Neue, Helvetica, Arial-Unicode, Arial, Sans-serif" fill="#000000">Created by John Caserta</text><text x="-3.637" y="114.495" font-size="5.0" font-weight="bold" font-family="Helvetica Neue, Helvetica, Arial-Unicode, Arial, Sans-serif" fill="#000000">from the Noun Project</text></svg>